<?xml version="1.0" standalone="no"?>
<!DOCTYPE svg PUBLIC "-//W3C//DTD SVG 20010904//EN"
 "http://www.w3.org/TR/2001/REC-SVG-20010904/DTD/svg10.dtd">
<svg version="1.0" xmlns="http://www.w3.org/2000/svg"
 width="100.000000pt" height="100.000000pt" viewBox="0 0 100.000000 100.000000"
 preserveAspectRatio="xMidYMid meet">

<g transform="translate(0.000000,100.000000) scale(0.100000,-0.100000)"
fill="#000000" stroke="none">
<path d="M461 786 c-14 -14 -29 -26 -34 -26 -5 0 -24 -16 -43 -35 -18 -19 -36
-35 -41 -35 -4 0 -21 -13 -36 -30 -16 -16 -32 -30 -37 -30 -5 0 -26 -17 -48
-37 -21 -21 -56 -52 -76 -70 -33 -27 -36 -34 -26 -52 15 -30 31 -26 78 19 22
22 44 40 47 40 4 0 23 15 42 33 20 17 52 47 72 65 19 17 39 32 43 32 4 0 23
16 42 35 20 19 41 35 47 35 10 0 154 -111 169 -131 10 -13 180 -149 186 -149
8 0 44 41 44 50 0 4 -12 16 -26 26 -15 10 -42 32 -60 49 l-34 30 0 102 0 103
-39 0 c-63 0 -71 -7 -71 -56 0 -24 -2 -44 -5 -44 -13 0 -52 28 -81 57 -44 46
-82 52 -113 19z"/>
<path d="M464 647 c-21 -17 -54 -47 -73 -64 -19 -18 -39 -33 -43 -33 -4 0 -22
-15 -41 -32 -18 -18 -42 -38 -53 -44 -17 -10 -19 -25 -22 -148 l-3 -136 101 0
100 0 0 90 0 90 70 0 70 0 0 -90 0 -90 100 0 100 0 0 133 0 132 -34 33 c-18
17 -36 32 -40 32 -4 0 -22 16 -42 35 -19 19 -37 35 -40 35 -3 0 -29 20 -58 45
l-53 45 -39 -33z"/>
</g>
</svg>
